<svg
  version="1.1"
  viewBox="0 0 512 512"
  xmlns="http://www.w3.org/2000/svg"
>
  <title>Favicon Gastronomía en femenino</title>
  <style>
    /* oculta el círculo de fondo en el modo oscuro del navegador */
    @media (prefers-color-scheme: dark) {
      #logo-bg { 
        display: none;
      }
    }
</style>
  <circle id="logo-bg" cx="256" cy="256" r="256" fill="#963b11" />
  <g>
    <path
      transform="scale(-1,1)"
      d="m-256 69.006v357.33h-95.332v-162.61a74.302 74.302 0 0 1-66.207-73.723 74.302 74.302 0 0 1 74.303-74.303 74.302 74.302 0 0 1 17.406 2.2422 74.302 74.302 0 0 1 69.83-48.934z"
      fill="#f2f6fc"
    />
    <path
      d="m256 69.006a74.302 74.302 0 0 0-69.6 48.826 74.302 74.302 0 0 0-17.637-2.1348 74.302 74.302 0 0 0-74.303 74.303 74.302 74.302 0 0 0 66.207 73.723v162.61h95.332v-357.33z"
      fill="#fff"
    />
    <path
      d="m256 132.76a61.377 61.377 0 0 0-61.377 61.377 61.377 61.377 0 0 0 48.506 59.852v16.805h-6.9512c-7.202 0-13 5.7864-13 12.975 0 7.1882 5.798 12.975 13 12.975h6.9512v20.545c0 7.2041 5.7409 13.004 12.871 13.004s12.871-5.7998 12.871-13.004v-20.545h6.9512c7.202 0 13-5.7864 13-12.975 0-7.1882-5.798-12.975-13-12.975h-6.9512v-16.805a61.377 61.377 0 0 0 48.506-59.852 61.377 61.377 0 0 0-61.377-61.377zm0 19.402a41.975 41.975 0 0 1 41.975 41.975 41.975 41.975 0 0 1-41.975 41.975 41.975 41.975 0 0 1-41.975-41.975 41.975 41.975 0 0 1 41.975-41.975z"
      fill="#efa06d"
    />
  </g>
</svg>